<svg xmlns="http://www.w3.org/2000/svg" style="display: none;">
  <symbol id="icon-dashboard" viewBox="0 0 24 24">
    <path d="M3 13h8V3H3v10zm0 8h8v-6H3v6zm10 0h8V11h-8v10zm0-18v6h8V3h-8z"/>
  </symbol>
  <symbol id="icon-orders" viewBox="0 0 24 24">
    <path d="M19 3h-4.18C14.4 1.84 13.3 1 12 1s-2.4.84-2.82 2H5c-1.1 0-2 .9-2 2v14c0 1.1.9 2 2 2h14c1.1 0 2-.9 2-2V5c0-1.1-.9-2-2-2zm-7 0c.55 0 1 .45 1 1s-.45 1-1 1-1-.45-1-1 .45-1 1-1zm2 14H7v-2h7v2zm3-4H7v-2h10v2zm0-4H7V7h10v2z"/>
  </symbol>
  <symbol id="icon-products" viewBox="0 0 24 24">
    <path d="M20 4H4v2h16V4zm1 10v-2l-1-5H4l-1 5v2h1v6h10v-6h4v6h2v-6h1zm-9 4H6v-4h6v4z"/>
  </symbol>
  <symbol id="icon-customers" viewBox="0 0 24 24">
    <path d="M16 11c1.66 0 2.99-1.34 2.99-3S17.66 5 16 5s-3 1.34-3 3 1.34 3 3 3zm-8 0c1.66 0 2.99-1.34 2.99-3S9.66 5 8 5 5 6.34 5 8s1.34 3 3 3zm0 2c-2.33 0-7 1.17-7 3.5V19h14v-2.5c0-2.33-4.67-3.5-7-3.5zm8 0c-.29 0-.62.02-.97.05 1.16.84 1.97 1.97 1.97 3.45V19h6v-2.5c0-2.33-4.67-3.5-7-3.5z"/>
  </symbol>
  <symbol id="icon-suppliers" viewBox="0 0 24 24">
    <path d="M20 8h-3V4H3v12h2v4h16V8zM5 14V6h10v8H5zm14 4H7v-2h10V10h2v8z"/>
  </symbol>
</svg>
